<?xml version="1.0" encoding="utf-8"?>
<!-- Generator: Adobe Illustrator 18.1.1, SVG Export Plug-In . SVG Version: 6.00 Build 0)  -->
<svg version="1.1" id="Layer_1" xmlns="http://www.w3.org/2000/svg" xmlns:xlink="http://www.w3.org/1999/xlink" x="0px" y="0px"
	 viewBox="0 0 30.6 31.9" enable-background="new 0 0 30.6 31.9" xml:space="preserve">
<g>
  	<rect id="svg_3" height="70%" width="100%" stroke-linecap="null" stroke-linejoin="null" stroke-dasharray="null" stroke-width="0" fill="#ffffff"/>
	<path fill-rule="evenodd" clip-rule="evenodd" fill="#ec0000" d="M9.2,22.7L0,31.9v-9.2v-5.8V0h30.6v22.7H9.2z M8.6,6.5
		c1.4,0,3,0.5,4.3,1.5l2.1-2.7c-1.6-1.3-3.6-2-5.9-2C5.2,3.3,3.1,5.5,3.1,8c0,3.6,3.4,4.3,5.8,4.7c1.4,0.3,2.5,0.5,2.5,1.3
		c0,0.7-0.8,1.2-2.1,1.2c-2,0-3.6-0.9-4.7-1.9l-2,2.8c1.5,1.4,3.5,2.3,6.5,2.3c3.9,0,6.1-2,6.1-4.9c0-3.4-3.3-4.2-5.7-4.7
		C8.1,8.5,7,8.3,7,7.6C7,7,7.5,6.5,8.6,6.5z M27.7,3.5H15.8v3.3h4.1v11.3h3.8V6.8h4.1V3.5z"/>
</g>
</svg>
